<svg version="1.2" xmlns="http://www.w3.org/2000/svg" viewBox="0 0 1143 1594" width="1143" height="1594">
	<title>DAY_BIG copy-svg</title>
	<style>
		.s0 { fill: #3067db } 
	</style>
	<path id="Layer" fill-rule="evenodd" class="s0" d="m832.5 546.6v-444.4l310.3-102.2v1072.2h-0.6c-4.3 91.3-28.1 176.2-71.3 251.9-47.6 83.8-116.3 150.3-202.8 197.9-86.4 47.6-185.9 71.4-295.6 71.4-109.8 0-209.2-23.8-295.7-71.4-86.5-47.6-155.2-114.1-203.8-197.9-48.1-83.8-73-177.9-73-280.1 0-103.8 24.9-198.4 73.5-281.1 48.1-83.3 116.8-149.8 203.3-197.9 86.5-48.1 185.9-72.4 295.7-72.4 95.1 0 182.1 18.3 260 54zm-260 217.4c-74.1 0-132.5 25.4-180 77.8-48.2 53-71.4 119-71.4 202.2 0 81.7 23.2 147.1 71.4 200.1 47 52.4 105.9 77.9 180 77.9 72.4 0 130.8-25.5 178.9-77.9 48.6-53 72.4-118.4 72.4-200.1 0-83.2-23.8-149.2-72.4-202.2-48.1-52.4-106.5-77.8-178.9-77.8z"/>
</svg>