<?xml version="1.0" encoding="utf-8"?>
<!-- Generator: Adobe Illustrator 23.0.1, SVG Export Plug-In . SVG Version: 6.00 Build 0)  -->
<svg version="1.1" id="Logo" xmlns="http://www.w3.org/2000/svg" xmlns:xlink="http://www.w3.org/1999/xlink" x="0px" y="0px"
	 viewBox="0 0 300 300" style="enable-background:new 0 0 300 300;" xml:space="preserve">
<style type="text/css">
	.st0{fill:#FFDC00;}
	.st1{fill:#004C9B;}
	.st2{fill:#FFFFFF;}
</style>
<g>
	<g>
		<rect x="198.07" y="81.27" class="st0" width="78.48" height="119.78"/>
	</g>
	<g>
		<rect x="23.55" y="98.84" class="st1" width="235.36" height="119.78"/>
	</g>
	<path class="st2" d="M58.96,117.22h-6.99l-0.34,0.34v19.6l-0.34,0.34h-4.21l-0.34-0.34v-19.6l-0.34-0.34h-7.05l-0.34-0.34v-3.53
		l0.34-0.34h19.6l0.34,0.34v3.53L58.96,117.22z"/>
	<path class="st2" d="M64.99,137.84c-5.22,0-8.75-3.53-8.75-9.09s3.53-9.09,8.75-9.09c5.22,0,8.75,3.53,8.75,9.09
		C73.74,134.32,70.28,137.84,64.99,137.84z M64.99,123.87c-2.44,0-3.87,1.76-3.87,4.88c0,3.12,1.42,4.88,3.87,4.88
		c2.44,0,3.87-1.76,3.87-4.88C68.86,125.63,67.5,123.87,64.99,123.87z"/>
	<path class="st2" d="M87.99,124.21h-2.44c-2.78,0-3.87,1.42-3.87,4.54v8.41l-0.34,0.34h-4.21l-0.34-0.34v-16.75l0.34-0.34H81
		l0.34,0.34l0.34,1.09h0.34c0,0,0.68-1.42,3.87-1.42h2.1l0.34,0.34v3.53L87.99,124.21z"/>
	<path class="st2" d="M97.69,137.84c-5.22,0-8.75-3.53-8.75-9.09s3.53-9.09,8.75-9.09c5.22,0,8.75,3.53,8.75,9.09
		C106.44,134.32,102.91,137.84,97.69,137.84z M97.69,123.87c-2.44,0-3.87,1.76-3.87,4.88c0,3.12,1.42,4.88,3.87,4.88
		c2.44,0,3.87-1.76,3.87-4.88C101.55,125.63,100.13,123.87,97.69,123.87z"/>
	<path class="st2" d="M125.43,137.5h-4.21l-0.34-0.34v-10.11c0-1.76-0.68-3.12-2.78-3.12c-2.44,0-3.87,1.42-3.87,4.54v8.75
		l-0.34,0.34h-4.21l-0.34-0.34v-16.82l0.34-0.34h3.87l0.34,0.34l0.34,1.09h0.34c0.68-0.68,2.1-1.76,4.54-1.76
		c4.21,0,6.65,2.78,6.65,6.99v10.51L125.43,137.5z"/>
	<path class="st2" d="M135.81,132.28c0,0.68,0.34,1.09,1.09,1.09h3.12l0.34,0.34v3.53l-0.34,0.34h-3.12c-3.12,0-5.97-1.42-5.97-5.22
		v-7.73l-0.34-0.34h-2.44l-0.34-0.34v-3.53l0.34-0.34h2.44l0.34-0.34v-3.19l0.34-0.34h4.21l0.34,0.34v3.12l0.34,0.34h3.87l0.34,0.34
		v3.53l-0.34,0.34h-3.87l-0.34,0.34V132.28L135.81,132.28z"/>
	<path class="st2" d="M150.73,137.84c-5.22,0-8.75-3.53-8.75-9.09s3.53-9.09,8.75-9.09c5.22,0,8.75,3.53,8.75,9.09
		C159.48,134.32,156.02,137.84,150.73,137.84z M150.73,123.87c-2.44,0-3.87,1.76-3.87,4.88c0,3.12,1.42,4.88,3.87,4.88
		s3.87-1.76,3.87-4.88C154.59,125.63,153.17,123.87,150.73,123.87z"/>
	<path class="st2" d="M60.72,191.63c0,6.31-3.53,9.77-9.77,9.77s-9.77-3.53-9.77-9.77v-14.72l0.34-0.34h4.21l0.34,0.34v14.72
		c0,3.53,1.42,5.56,4.88,5.56s4.88-2.1,4.88-5.56v-14.72l0.34-0.34h4.21l0.34,0.34L60.72,191.63L60.72,191.63z"/>
	<path class="st2" d="M80.39,201.06h-4.21l-0.34-0.34v-10.11c0-1.76-0.68-3.12-2.78-3.12c-2.44,0-3.87,1.42-3.87,4.54v8.75
		l-0.34,0.34h-4.21l-0.34-0.34v-16.82l0.34-0.34h3.87l0.34,0.34l0.34,1.09h0.34c0.68-0.68,2.1-1.76,4.54-1.76
		c4.21,0,6.65,2.78,6.65,6.99v10.51L80.39,201.06z"/>
	<path class="st2" d="M89,180.78H84.8l-0.34-0.34v-3.53l0.34-0.34H89l0.34,0.34v3.53L89,180.78z M89,201.06H84.8l-0.34-0.34V183.9
		l0.34-0.34H89l0.34,0.34v16.82L89,201.06z"/>
	<path class="st2" d="M102.71,200.72l-0.34,0.34H98.5l-0.34-0.34l-5.97-13.29v-3.53l0.34-0.34h3.12l0.34,0.34l4.21,10.85h0.34
		l4.21-10.85l0.34-0.34h3.12l0.34,0.34v3.53L102.71,200.72z"/>
	<path class="st2" d="M127.26,193.73l-0.34,0.34h-10.85l-0.34,0.34c0,0.68,0.68,2.78,3.53,2.78c1.09,0,2.1-0.34,2.44-1.09l0.34-0.34
		h4.21l0.34,0.34c-0.34,2.1-2.1,5.22-7.33,5.22c-5.97,0-8.75-4.21-8.75-9.09c0-4.88,2.78-9.09,8.41-9.09c5.63,0,8.41,4.21,8.41,9.09
		L127.26,193.73L127.26,193.73z M122.04,190.21c0-0.34-0.34-2.78-3.12-2.78c-2.78,0-3.12,2.44-3.12,2.78l0.34,0.34h5.56
		L122.04,190.21z"/>
	<path class="st2" d="M141.3,187.76h-2.44c-2.78,0-3.87,1.42-3.87,4.54v8.41l-0.34,0.34h-4.21l-0.34-0.34V183.9l0.34-0.34h3.87
		l0.34,0.34l0.34,1.09h0.34c0,0,0.68-1.42,3.87-1.42h2.1l0.34,0.34v3.46L141.3,187.76z"/>
	<path class="st2" d="M151,201.4c-4.88,0-7.66-2.44-7.66-5.97l0.34-0.34h4.21l0.34,0.34c0,1.42,1.09,1.76,2.78,1.76
		c1.7,0,2.78-0.34,2.78-1.42c0-1.42-1.42-1.42-3.53-1.76s-6.65-1.42-6.65-5.56c0-2.78,2.1-5.22,7.33-5.22
		c4.21,0,7.33,1.76,7.33,5.22l-0.34,0.34h-4.14l-0.34-0.34c0-0.68-0.68-1.09-2.44-1.09c-1.76,0-2.44,0.34-2.44,1.42
		c0,1.42,2.1,1.42,4.21,1.76c2.1,0.34,5.97,1.09,5.97,5.22C158.66,198.62,156.56,201.4,151,201.4z"/>
	<path class="st2" d="M166.06,180.78h-4.14l-0.34-0.34v-3.53l0.34-0.34h4.21l0.34,0.34v3.53L166.06,180.78z M166.06,201.06h-4.14
		l-0.34-0.34V183.9l0.34-0.34h4.21l0.34,0.34v16.82L166.06,201.06z"/>
	<path class="st2" d="M177.18,195.84c0,0.68,0.34,1.09,1.02,1.09h3.12l0.34,0.34v3.53l-0.34,0.34h-3.12c-3.12,0-5.97-1.42-5.97-5.22
		v-7.66l-0.34-0.34h-2.44l-0.34-0.34v-3.53l0.34-0.34h2.44l0.34-0.34v-3.12l0.34-0.34h4.21l0.34,0.34v3.12l0.34,0.34h3.87l0.34,0.34
		v3.53l-0.34,0.34h-3.8l-0.34,0.34V195.84L177.18,195.84z"/>
	<path class="st2" d="M194.88,201.4c-1.42,3.53-2.78,5.56-7.66,5.56h-1.76l-0.34-0.34v-3.53l0.34-0.34h1.76
		c1.76,0,2.1-0.34,2.44-1.42v-0.34l-5.56-13.63v-3.53l0.34-0.34h3.12l0.34,0.34l4.21,11.87h0.34l4.21-11.87l0.34-0.34h3.12
		l0.34,0.34v3.53L194.88,201.4z"/>
	<polygon class="st2" points="65.26,169.32 61.06,169.32 60.72,168.98 60.72,155.61 60.38,155.61 55.7,168.98 55.29,169.32 
		51.5,169.32 51.16,168.98 46.41,155.61 46.07,155.61 46.07,168.98 45.66,169.32 41.46,169.32 41.12,168.98 41.12,145.17 
		41.46,144.83 46.75,144.83 47.09,145.17 53.26,162.33 53.6,162.33 59.7,145.17 60.04,144.83 65.26,144.83 65.6,145.17 65.6,168.98 
			"/>
	<path class="st2" d="M85.41,161.92l-0.34,0.34H74.22l-0.34,0.34c0,0.68,0.68,2.78,3.53,2.78c1.09,0,2.1-0.34,2.44-1.09l0.34-0.34
		h4.21l0.34,0.34c-0.34,2.1-2.1,5.22-7.33,5.22c-5.97,0-8.75-4.21-8.75-9.09s2.78-9.09,8.41-9.09s8.41,4.21,8.41,9.09L85.41,161.92
		L85.41,161.92z M80.12,158.46c0-0.34-0.34-2.78-3.12-2.78c-2.78,0-3.12,2.44-3.12,2.78l0.34,0.34h5.56L80.12,158.46z"/>
	<path class="st2" d="M94.7,164.02c0,0.68,0.34,1.09,1.09,1.09h3.12l0.34,0.34v3.53l-0.34,0.34h-3.12c-3.12,0-5.97-1.42-5.97-5.22
		v-7.66l-0.34-0.34h-2.44l-0.34-0.34v-3.53l0.34-0.34h2.44l0.34-0.34v-3.12l0.34-0.34h4.21l0.34,0.34v3.12l0.34,0.34h3.87l0.34,0.34
		v3.53l-0.34,0.34h-3.87l-0.34,0.34V164.02L94.7,164.02z"/>
	<path class="st2" d="M113.83,156.02h-2.44c-2.78,0-3.87,1.42-3.87,4.54v8.41l-0.34,0.34h-4.21l-0.34-0.34v-16.82l0.34-0.34h3.87
		l0.34,0.34l0.34,1.09h0.34c0,0,0.68-1.42,3.87-1.42h2.1l0.34,0.34v3.53L113.83,156.02z"/>
	<path class="st2" d="M123.53,169.65c-5.22,0-8.75-3.53-8.75-9.09c0-5.56,3.53-9.09,8.75-9.09s8.75,3.53,8.75,9.09
		C132.28,166.13,128.75,169.65,123.53,169.65z M123.53,155.68c-2.44,0-3.87,1.76-3.87,4.88s1.42,4.88,3.87,4.88
		c2.44,0,3.87-1.76,3.87-4.88S125.97,155.68,123.53,155.68z"/>
	<path class="st2" d="M145.03,169.65c-3.12,0-4.54-1.76-4.54-1.76h-0.34v8.34l-0.34,0.34h-4.21l-0.34-0.34v-24.08l0.34-0.34h3.87
		l0.34,0.34l0.34,1.09h0.34c0,0,1.42-1.76,4.54-1.76c4.21,0,7.66,3.53,7.66,9.09C152.7,166.13,149.24,169.65,145.03,169.65z
		 M143.95,155.68c-2.78,0-3.87,2.1-3.87,4.88s1.09,4.88,3.87,4.88s3.87-2.1,3.87-4.88S146.73,155.68,143.95,155.68z"/>
	<path class="st2" d="M163.41,169.65c-5.22,0-8.75-3.53-8.75-9.09c0-5.56,3.53-9.09,8.75-9.09c5.22,0,8.75,3.53,8.75,9.09
		C172.16,166.13,168.7,169.65,163.41,169.65z M163.41,155.68c-2.44,0-3.87,1.76-3.87,4.88s1.42,4.88,3.87,4.88s3.87-1.76,3.87-4.88
		S165.85,155.68,163.41,155.68z"/>
	<path class="st2" d="M179.69,169.32h-4.21l-0.34-0.34v-23.81l0.34-0.34h4.21l0.34,0.34v23.81L179.69,169.32z"/>
	<path class="st2" d="M188.64,149.03h-4.21l-0.34-0.34v-3.53l0.34-0.34h4.21l0.34,0.34v3.53L188.64,149.03z M188.64,169.32h-4.21
		l-0.34-0.34v-16.82l0.34-0.34h4.21l0.34,0.34v16.82L188.64,169.32z"/>
	<path class="st2" d="M199.77,164.02c0,0.68,0.34,1.09,1.02,1.09h3.12l0.34,0.34v3.53l-0.34,0.34h-3.12c-3.12,0-5.97-1.42-5.97-5.22
		v-7.66l-0.34-0.34h-2.44l-0.34-0.34v-3.53l0.34-0.34h2.44l0.34-0.34v-3.12l0.34-0.34h4.21l0.34,0.34v3.12l0.34,0.34h3.87l0.34,0.34
		v3.53l-0.34,0.34h-3.87l-0.34,0.34L199.77,164.02L199.77,164.02z"/>
	<path class="st2" d="M221.27,169.32h-3.87l-0.34-0.34l-0.34-0.68h-0.34c0,0-1.42,1.42-3.87,1.42c-3.87,0-6.31-2.1-6.31-5.56
		c0-5.22,4.88-5.97,7.66-5.97c1.42,0,2.44,0.34,2.44,0.34l0.34-0.34v-0.34c0-1.76-0.34-2.1-2.44-2.1c-1.02,0-2.1,0-2.44,1.09
		l-0.34,0.34h-4.21l-0.34-0.34c0-2.1,1.76-5.22,7.33-5.22s7.33,2.78,7.33,8.07v9.43L221.27,169.32z M216.39,161.92
		c0,0-0.68-0.34-2.1-0.34c-2.1,0-3.12,0.68-3.12,2.1c0,1.09,0.68,1.76,2.44,1.76c1.76,0,3.12-1.09,3.12-2.44v-0.68L216.39,161.92z"
		/>
	<path class="st2" d="M241.35,169.32h-4.21l-0.34-0.34v-10.11c0-1.76-0.68-3.12-2.78-3.12c-2.44,0-3.87,1.42-3.87,4.54v8.75
		l-0.34,0.34h-4.21l-0.34-0.34v-16.82l0.34-0.34h3.87l0.34,0.34l0.34,1.09h0.34c0.68-0.68,2.1-1.76,4.54-1.76
		c4.21,0,6.65,2.78,6.65,6.99v10.51L241.35,169.32z"/>
</g>
</svg>
